{"title":"In.The.Land.Of.Blood.And.Honey.2011.BRRip.HORiZON-ArtSubs","uid":7107431,"size":1778681856,"categoryP":"video","categoryS":"movies","magnet":"?xt=urn:btih:55ccdd2c92cbc44a7306c6842b3864f2c9fd92de&amp;dn=In.The.Land.Of.Blood.And.Honey.2011.BRRip.HORiZON-ArtSubs&amp;tr=udp%3A%2F%2Ftracker.openbittorrent.com%3A80&amp;tr=udp%3A%2F%2Fopen.demonii.com%3A1337&amp;tr=udp%3A%2F%2Ftracker.coppersurfer.tk%3A6969&amp;tr=udp%3A%2F%2Fexodus.desync.com%3A6969","seeders":1,"leechers":3,"uploader":"lletaif","files":1,"time":1331913448,"description":"Titles: In The Land Of Blood And Honey\n\nCountry: Bosnia/2011\n\nDirector: Angelina Jolie\n\nWriter: Angelina Jolie\n\nStars: Zana Marjanovic, Goran Kostic and Rade Serbedzija\n\nPlot: During the Bosnian War, Danijel, a soldier fighting for the Serbs, re-encounters Ajla, a Bosnian who's now a captive in his camp he oversees. Their once promising connection has become ambiguous as their motives have changed.\n\nLanguage: Bosnian | Serbian\n\nRip Specs:\n\n\nGeneral\nComplete name                    : D:In.The.Land.Of.Blood.And.Honey.2011.BRRip.HORiZON-ArtSubs.avi\nFormat                           : AVI\nFormat/Info                      : Audio Video Interleave\nFile size                        : 1.66 GiB\nDuration                         : 2h 6mn\nOverall bit rate                 : 1 871 Kbps\nWriting application              : FairUse Wizard - http://fairusewizard.com\nWriting library                  : The best and REALLY easy backup tool\n\nVideo\nID                               : 0\nFormat                           : MPEG-4 Visual\nFormat profile                   : Advanced Simple@L5\nFormat settings, BVOP            : 1\nFormat settings, QPel            : No\nFormat settings, GMC             : No warppoints\nFormat settings, Matrix          : Default (MPEG)\nMuxing mode                      : Packed bitstream\nCodec ID                         : XVID\nCodec ID/Hint                    : XviD\nDuration                         : 2h 6mn\nBit rate                         : 1 414 Kbps\nWidth                            : 688 pixels\nHeight                           : 288 pixels\nDisplay aspect ratio             : 2.40:1\nFrame rate                       : 23.976 fps\nColor space                      : YUV\nChroma subsampling               : 4:2:0\nBit depth                        : 8 bits\nScan type                        : Progressive\nCompression mode                 : Lossy\nBits/(Pixel*Frame)               : 0.298\nStream size                      : 1.25 GiB (76%)\nWriting library                  : XviD 1.2.0.dev47 (UTC 2006-11-01)\n\nAudio\nID                               : 1\nFormat                           : AC-3\nFormat/Info                      : Audio Coding 3\nMode extension                   : CM (complete main)\nCodec ID                         : 2000\nDuration                         : 2h 6mn\nBit rate mode                    : Constant\nBit rate                         : 448 Kbps\nChannel(s)                       : 6 channels\nChannel positions                : Front: L C R, Side: L R, LFE\nSampling rate                    : 48.0 KHz\nBit depth                        : 16 bits\nCompression mode                 : Lossy\nStream size                      : 406 MiB (24%)\nAlignment                        : Split accross interleaves\nInterleave, duration             : 42 ms (1.00 video frame)\nInterleave, preload duration     : 500 ms\n","torrent":{"xt":"urn:btih:55ccdd2c92cbc44a7306c6842b3864f2c9fd92de","amp;dn":"In.The.Land.Of.Blood.And.Honey.2011.BRRip.HORiZON-ArtSubs","amp;tr":["udp%3A%2F%2Ftracker.openbittorrent.com%3A80","udp%3A%2F%2Fopen.demonii.com%3A1337","udp%3A%2F%2Ftracker.coppersurfer.tk%3A6969","udp%3A%2F%2Fexodus.desync.com%3A6969"],"infoHash":"55ccdd2c92cbc44a7306c6842b3864f2c9fd92de","infoHashBuffer":{"type":"Buffer","data":[85,204,221,44,146,203,196,74,115,6,198,132,43,56,100,242,201,253,146,222]},"announce":[],"urlList":[]}}